<svg display = 'none' xmlns="http://www.w3.org/2000/svg">
  <symbol id="location" viewBox="0 0 10 13">
    <g>
      <path d="M10 5L10 5.00001C10 5.28878 9.97552 5.57184 9.92852 5.84721C9.31782 9.54574 5 13 5 13C5 13 0.68203 9.54563 0.0714481 5.84702C0.02447 5.57171 0 5.28871 0 5.00001V5C0 2.23858 2.23858 0 5 0C7.76142 0 10 2.23858 10 5ZM5 7C6.10457 7 7 6.10457 7 5C7 3.89543 6.10457 3 5 3C3.89543 3 3 3.89543 3 5C3 6.10457 3.89543 7 5 7Z"></path>
    </g>
  </symbol>
  <symbol id="life" viewBox="0 0 24 24">
    <g>
      <path d="M11.0293 14.7883C11.0293 15.6251 10.3517 16.3024 9.5147 16.3024C8.67823 16.3024 8 15.6251 8 14.7883C8 13.9517 8.67811 13.2734 9.5147 13.2734C10.3517 13.2734 11.0293 13.9516 11.0293 14.7883ZM11.0293 8.21145C11.0293 9.04792 10.3517 9.72628 9.5147 9.72628C8.67823 9.72628 8 9.04804 8 8.21145C8 7.37535 8.67811 6.69663 9.5147 6.69663C10.3517 6.69663 11.0293 7.37523 11.0293 8.21145ZM12.8097 3C14.7077 5.21166 15.847 8.40396 15.847 11.4997C15.847 14.5957 14.7077 17.7886 12.8097 20L11.5593 19.0736C12.8979 16.7092 13.5688 14.5199 13.5688 11.4998C13.5688 8.48069 12.8979 6.29118 11.5593 3.92605L12.8097 3Z" fill="currentColor"></path>
    </g>
  </symbol>
  <symbol id="A1" viewBox="0 0 24 24">
    <g>
      <path d="M18.9675 3V13.3226L19.4837 12.8065V3.51613L18.9675 3Z" fill="#0B0B0B"></path><path d="M14.8386 7.64505H15.8709L16.9031 7.12892V6.61279L14.8386 7.64505Z" fill="#0B0C0C"></path><path d="M18.9677 3H17.4193C17.4193 3 17.1597 3.66169 16.9031 4.03226C16.3295 4.86087 14.8386 5.58065 14.8386 5.58065V7.64516L16.9031 6.6129V12.8065L18.9677 13.3226V3Z" fill="#363636"></path><path fill-rule="evenodd" clip-rule="evenodd" d="M5 18.5L9.67739 4.54834L12.1426 5.04139C12.2139 5.05563 12.2718 5.10737 12.2939 5.17655L16.3036 17.7067C16.3449 17.8358 16.2486 17.9677 16.1131 17.9677H13.8064L12.7742 15.387H9.16126L8.17434 18.3478C8.14724 18.4291 8.07134 18.4841 7.98563 18.4846L5 18.5ZM11.036 9.24658L9.76514 13.0593C9.72197 13.1888 9.81836 13.3225 9.95487 13.3225H12.4967C12.6332 13.3225 12.7296 13.1888 12.6864 13.0593L11.4155 9.24658C11.3547 9.06424 11.0968 9.06424 11.036 9.24658Z" fill="#FF1917"></path><path d="M8.64516 5.06447L4.09188 18.2184C4.04691 18.3483 4.14339 18.4838 4.28087 18.4838H5L9.67742 4.54834L8.64516 5.06447Z" fill="#990707"></path><path d="M11.7419 15.387L12.7239 17.8419C12.7543 17.9178 12.8278 17.9676 12.9096 17.9676H13.8065L12.7742 15.387H11.7419Z" fill="#990707"></path><path d="M10.7097 10.2259L11.742 13.3227H12.4967C12.6333 13.3227 12.7297 13.1889 12.6865 13.0594L11.4156 9.2467C11.3548 9.06436 11.0969 9.06436 11.0361 9.2467L10.7097 10.2259Z"></path>
    </g>
  </symbol>
  <symbol id="home" viewBox="0 0 24 24">
    <g>
      <path fill-rule="evenodd" clip-rule="evenodd" d="M12 7.66685C15.3086 7.66685 15.9997 8.96182 15.9997 9.66644H20C20 7.00663 16.5603 5 12 5C7.43917 5 4 7.00663 4 9.66644H8.00027C8.00027 8.96182 8.69135 7.66685 12 7.66685ZM8.00027 10.0006H4V12.0631H8.00027V10.0006ZM15.9998 10.0006H20V12.0631H15.9998V10.0006ZM12 16.9997C12.9204 16.9997 13.6665 16.2536 13.6665 15.3332C13.6665 14.4128 12.9204 13.6667 12 13.6667C11.0796 13.6667 10.3335 14.4128 10.3335 15.3332C10.3335 16.2536 11.0796 16.9997 12 16.9997ZM12.5422 8.34874C13.1385 8.37907 13.62 8.45869 14.0002 8.56809V11.6671L18.6666 14.3345V19.0004H5.33398V14.3345L10.0004 11.6671V8.56809C10.3812 8.45869 10.8621 8.37961 11.459 8.34874V11.1255H12.5422V8.34874ZM12 18.0001C13.4732 18.0001 14.6669 16.8064 14.6669 15.3327C14.6669 13.8617 13.4732 12.6658 12 12.6658C10.5269 12.6658 9.33317 13.8601 9.33317 15.3327C9.33317 16.8064 10.5269 18.0001 12 18.0001Z" fill="currentColor"></path>
    </g>
  </symbol>
  <symbol id="viber" viewBox="0 0 24 24">
    <g>
      <path d="M12.4198 9.15828C12.427 9.02581 12.5402 8.92423 12.6727 8.93139C13.1741 8.95849 13.5885 9.11009 13.883 9.41605C14.1761 9.7206 14.3188 10.1453 14.3456 10.6545C14.3526 10.787 14.2509 10.9001 14.1184 10.9071C13.9859 10.914 13.8728 10.8123 13.8659 10.6798C13.8428 10.2416 13.7237 9.9433 13.5369 9.74921C13.3514 9.55652 13.0677 9.43387 12.6467 9.41111C12.5142 9.40395 12.4127 9.29075 12.4198 9.15828Z" fill="currentColor"></path><path d="M12.3544 7.63537C12.2222 7.62493 12.1065 7.72368 12.096 7.85593C12.0856 7.98819 12.1843 8.10386 12.3166 8.1143C13.217 8.18539 13.9031 8.48995 14.4021 9.03425C14.8805 9.55821 15.1355 10.2442 15.1122 11.0593C15.1084 11.1919 15.2128 11.3025 15.3454 11.3063C15.478 11.31 15.5886 11.2056 15.5924 11.073C15.619 10.1429 15.3255 9.33306 14.7568 8.71015C14.1588 8.05783 13.3488 7.71387 12.3544 7.63537Z"></path><path d="M11.6216 6.65321C11.6216 6.52055 11.7292 6.413 11.8618 6.413C13.2672 6.413 14.4503 6.8838 15.3951 7.80238C16.3468 8.72766 16.8391 9.99059 16.8391 11.5648C16.8391 11.6975 16.7316 11.805 16.5989 11.805C16.4663 11.805 16.3587 11.6975 16.3587 11.5648C16.3587 10.0974 15.9036 8.96681 15.0602 8.14684C14.2099 7.32018 13.1491 6.89342 11.8618 6.89342C11.7292 6.89342 11.6216 6.78588 11.6216 6.65321Z"></path><path d="M13.233 13.6838C13.0585 13.9082 12.7095 13.8833 12.7095 13.8833C10.2413 13.235 9.61798 10.7669 9.61798 10.7669C9.61798 10.7669 9.59306 10.4178 9.81744 10.2433L10.2662 9.89427C10.4656 9.71975 10.6152 9.29592 10.3908 8.89702C10.3352 8.81349 10.2656 8.70577 10.1913 8.59058C10.066 8.39637 9.92698 8.18093 9.81744 8.02443C9.61799 7.75019 9.16922 7.2017 9.16922 7.2017C8.94484 6.92746 8.62074 6.87759 8.2717 7.05211C7.9476 7.25156 7.64842 7.50087 7.37418 7.80005C7.1498 8.04936 7.02514 8.29867 7.00021 8.54798V8.64771C7.00021 8.77235 7.02514 8.87207 7.05007 8.97178C7.14979 9.37068 7.42404 9.99399 7.99746 11.0411C8.37142 11.7142 8.77032 12.2877 9.14429 12.7614C9.34374 13.0107 9.56813 13.26 9.84237 13.5342L9.94209 13.6339C10.1914 13.9082 10.4656 14.1326 10.715 14.332C11.1887 14.706 11.7621 15.1049 12.4352 15.4788C13.5072 16.0523 14.1305 16.3265 14.5045 16.4262C14.6042 16.4512 14.7289 16.4761 14.8286 16.4761H14.9283C15.1776 16.4262 15.4269 16.3265 15.6763 16.1021C16.0004 15.8279 16.2497 15.5287 16.4242 15.2046C16.5987 14.8556 16.5488 14.5315 16.2746 14.3071C16.2746 14.3071 15.7261 13.8583 15.4519 13.6589C15.2026 13.4594 14.8037 13.2101 14.5793 13.0855C14.1555 12.8611 13.7566 13.0107 13.582 13.235L13.233 13.6838Z"></path><path d="M18.9922 4.85816C18.5185 4.43433 16.6237 3.03819 12.3605 3.01326C12.3605 3.01326 7.34931 2.71408 4.90606 4.95789C3.53484 6.3291 3.06115 8.29867 3.01129 10.7669C2.96142 13.235 2.88664 17.8473 7.34931 19.1188V21.0385C7.34931 21.0385 7.32438 21.8114 7.823 21.9609C8.32958 22.123 8.655 21.7581 9.08035 21.2812C9.17834 21.1713 9.28163 21.0555 9.39366 20.9388C9.71777 20.5897 10.1665 20.0911 10.4906 19.6922C13.5322 19.9415 15.8758 19.3681 16.15 19.2684C16.2047 19.2509 16.2814 19.2314 16.376 19.2074C17.3596 18.958 20.2891 18.2151 20.8121 14.0079C21.4105 9.22112 20.5628 6.20445 18.9922 4.85816ZM19.5157 13.6339C19.0839 17.1564 16.7049 17.6752 15.8908 17.8527C15.8118 17.8699 15.7476 17.8839 15.7013 17.8972C15.4769 17.9719 13.4325 18.4706 10.8397 18.321C10.8397 18.321 8.91997 20.6396 8.29669 21.2629C8.19697 21.3626 8.09724 21.3875 8.02245 21.3875C7.92273 21.3626 7.89779 21.2379 7.89779 21.0634C7.89779 20.8141 7.92273 17.8722 7.92273 17.8722C4.29992 16.7844 4.36322 13.293 4.40176 11.1672C4.40396 11.0457 4.40608 10.9286 4.40743 10.8167C4.4573 8.74742 4.83127 7.07703 5.9781 5.9302C8.04739 4.06036 12.3106 4.33461 12.3106 4.33461C15.9007 4.35954 17.6209 5.43158 18.0198 5.80554C19.3163 6.95238 19.9894 9.66988 19.5157 13.6339Z"></path>
    </g>
  </symbol>
  <symbol id="telegram" viewBox="0 0 24 24">
    <g>
      <path d="M12 21C17.2467 21 21.5 16.7467 21.5 11.5C21.5 6.25329 17.2467 2 12 2C6.75329 2 2.5 6.25329 2.5 11.5C2.5 16.7467 6.75329 21 12 21Z" fill="currentColor"></path><path opacity="0.5" d="M10 16L12.5 14L10 13" class="styles_iconTelegram__2OsXK"></path><path d="M10 13L14.2258 15.4509C14.6544 15.6873 14.9637 15.5649 15.0705 15.053L16.5993 7.84887C16.7558 7.22136 16.36 6.93674 15.95 7.12288L6.97318 10.5843C6.36042 10.8301 6.36399 11.172 6.86148 11.3243L9.16515 12.0433L14.4984 8.67862C14.7502 8.52594 14.9812 8.60802 14.7916 8.77634" class="styles_iconTelegram__2OsXK"></path>
    </g>
  </symbol>
  <symbol id="email" viewBox="0 0 24 24">
    <g>
      <path fill="currentColor" xmlns="http://www.w3.org/2000/svg" fill-rule="evenodd" clip-rule="evenodd" d="M4 7V17C4 17.5523 4.44772 18 5 18H19C19.5523 18 20 17.5523 20 17V7C20 6.44772 19.5523 6 19 6H5C4.44772 6 4 6.44772 4 7ZM5.5 16.5H18.5V8.36048L12.4685 13.5461C12.1946 13.7653 11.8054 13.7653 11.5315 13.5461L5.5 8.36046V16.5ZM6.8256 7.5H17.1744L12 12L6.8256 7.5Z"></path>
    </g>
  </symbol>
  <symbol id="call" viewBox="0 0 24 24">
    <g>
      <path d="M17.562 6.41469C18.8385 7.69116 19.6692 9.2952 19.9698 11.0579C20.0137 11.3045 19.8448 11.5408 19.5983 11.578C19.5956 11.5783 19.5929 11.5787 19.5902 11.579C19.5665 11.582 19.5449 11.5847 19.5207 11.5847C19.3012 11.5847 19.1087 11.4294 19.0715 11.2065C18.8048 9.63289 18.0618 8.1977 16.9204 7.0563C15.779 5.91828 14.3439 5.17199 12.7702 4.90521C12.5203 4.86131 12.3548 4.6283 12.3954 4.37841C12.4393 4.1319 12.6723 3.96305 12.9188 4.00695C14.6815 4.3075 16.2856 5.13822 17.562 6.41469Z" fill="currentColor"></path><path fill-rule="evenodd" clip-rule="evenodd" d="M16.6334 13.9114C16.3059 13.5704 15.9108 13.388 15.492 13.388C15.0767 13.388 14.6782 13.567 14.3371 13.908L13.27 14.9718C13.212 14.9405 13.154 14.9108 13.0969 14.8815C13.0677 14.8665 13.0386 14.8516 13.01 14.8367C12.8884 14.7759 12.7736 14.7185 12.6757 14.6577C11.6761 14.0229 10.7677 13.1955 9.89648 12.125C9.47436 11.5915 9.1907 11.1424 8.98471 10.6865C9.2349 10.4576 9.46855 10.2205 9.69562 9.99012L9.76816 9.91653C9.81543 9.86926 9.86271 9.82114 9.90999 9.77302C9.95726 9.7249 10.0045 9.67677 10.0518 9.6295C10.761 8.92035 10.761 8.00183 10.0518 7.29267L9.12992 6.37078C9.02524 6.26609 8.91717 6.15803 8.81587 6.04997C8.61325 5.8406 8.40051 5.62448 8.18101 5.42186C7.85345 5.09768 7.46172 4.92546 7.04974 4.92546C6.63776 4.92546 6.23928 5.09768 5.90159 5.42186L5.89484 5.42862L4.74669 6.5869C4.31444 7.01914 4.06793 7.54594 4.0139 8.15716C3.93285 9.14322 4.22326 10.0617 4.44614 10.6628C4.9932 12.1385 5.81041 13.5062 7.02948 14.9718C8.50857 16.7379 10.2882 18.1326 12.3211 19.1152C13.0978 19.4833 14.1345 19.919 15.2928 19.9932C15.3637 19.9966 15.438 20 15.5055 20C16.2856 20 16.9407 19.7197 17.454 19.1625C17.4557 19.1591 17.4582 19.1566 17.4608 19.1541C17.4633 19.1516 17.4658 19.149 17.4675 19.1456C17.6301 18.9487 17.8159 18.769 18.0114 18.58L18.0585 18.5344C18.2037 18.396 18.3523 18.2508 18.4975 18.0988C18.8318 17.751 19.0074 17.3457 19.0074 16.9304C19.0074 16.5116 18.8284 16.1098 18.4873 15.7721L16.6334 13.9114ZM17.8424 17.4673C17.7342 17.5838 17.6238 17.6911 17.5074 17.8043L17.4304 17.8793C17.2109 18.0887 16.988 18.3082 16.7786 18.5547C16.4376 18.9194 16.0357 19.0916 15.5089 19.0916C15.4583 19.0916 15.4042 19.0916 15.3536 19.0882C14.3506 19.0241 13.4186 18.6323 12.7196 18.298C10.8082 17.3728 9.12992 16.0591 7.73525 14.3943C6.58373 13.0064 5.81379 11.7232 5.30388 10.3454C4.98982 9.50455 4.87501 8.84943 4.92566 8.23146C4.95943 7.83636 5.11139 7.5088 5.39168 7.22851L6.5432 6.07698C6.70867 5.92165 6.88427 5.83722 7.05649 5.83722C7.26924 5.83722 7.44146 5.96555 7.54952 6.07361L7.55965 6.08374C7.76565 6.27622 7.96151 6.47546 8.1675 6.68821C8.22025 6.74265 8.27385 6.7971 8.32788 6.85198C8.38108 6.90602 8.43469 6.96048 8.48831 7.01577L9.4102 7.93766C9.76816 8.29562 9.76816 8.62655 9.4102 8.98451C9.37744 9.01727 9.34505 9.05004 9.31279 9.08268C9.24863 9.14758 9.18494 9.21202 9.11979 9.27492C8.83613 9.56534 8.56598 9.83549 8.27218 10.0989C8.26979 10.1013 8.2674 10.1033 8.26516 10.1051C8.26107 10.1085 8.25748 10.1114 8.2553 10.1158C7.96488 10.4062 8.01891 10.6898 8.0797 10.8823L8.08983 10.9127C8.32959 11.4936 8.66728 12.0406 9.18057 12.6924L9.18395 12.6957C10.116 13.8439 11.0987 14.7388 12.1826 15.4243C12.3211 15.5121 12.4629 15.583 12.598 15.6505C12.7196 15.7113 12.8344 15.7687 12.9323 15.8295C12.9391 15.8329 12.9458 15.8371 12.9526 15.8413C12.9593 15.8455 12.9661 15.8498 12.9728 15.8532C13.0877 15.9106 13.1957 15.9376 13.3072 15.9376C13.5874 15.9376 13.763 15.762 13.8205 15.7046L14.9754 14.5497C15.0902 14.4348 15.2725 14.2964 15.4853 14.2964C15.6946 14.2964 15.8669 14.4281 15.9715 14.5429L17.839 16.4103C18.1868 16.7548 18.1868 17.1094 17.8424 17.4673Z" fill="currentColor"></path><path d="M12.6351 7.80598C13.5199 7.95456 14.3236 8.3733 14.9652 9.01491C15.6068 9.65653 16.0222 10.4602 16.1742 11.345C16.2113 11.5679 16.4038 11.7232 16.6233 11.7232C16.6476 11.7232 16.6691 11.7205 16.6929 11.7175L16.701 11.7164C16.9509 11.6759 17.1163 11.4395 17.0758 11.1896C16.8934 10.1192 16.3869 9.14324 15.6136 8.36992C14.8403 7.59661 13.8643 7.09007 12.7939 6.90772C12.544 6.8672 12.311 7.03266 12.2671 7.27918C12.2232 7.52569 12.3853 7.76545 12.6351 7.80598Z" fill="currentColor"></path><path d="M17.562 6.41469C18.8385 7.69116 19.6692 9.2952 19.9698 11.0579C20.0137 11.3045 19.8448 11.5408 19.5983 11.578C19.5956 11.5783 19.5929 11.5787 19.5902 11.579C19.5665 11.582 19.5449 11.5847 19.5207 11.5847C19.3012 11.5847 19.1087 11.4294 19.0715 11.2065C18.8048 9.63289 18.0618 8.1977 16.9204 7.0563C15.779 5.91828 14.3439 5.17199 12.7702 4.90521C12.5203 4.86131 12.3548 4.6283 12.3954 4.37841C12.4393 4.1319 12.6723 3.96305 12.9188 4.00695C14.6815 4.3075 16.2856 5.13822 17.562 6.41469Z" stroke="currentColor" stroke-width="0.6"></path><path fill-rule="evenodd" clip-rule="evenodd" d="M16.6334 13.9114C16.3059 13.5704 15.9108 13.388 15.492 13.388C15.0767 13.388 14.6782 13.567 14.3371 13.908L13.27 14.9718C13.212 14.9405 13.154 14.9108 13.0969 14.8815C13.0677 14.8665 13.0386 14.8516 13.01 14.8367C12.8884 14.7759 12.7736 14.7185 12.6757 14.6577C11.6761 14.0229 10.7677 13.1955 9.89648 12.125C9.47436 11.5915 9.1907 11.1424 8.98471 10.6865C9.2349 10.4576 9.46855 10.2205 9.69562 9.99012L9.76816 9.91653C9.81543 9.86926 9.86271 9.82114 9.90999 9.77302C9.95726 9.7249 10.0045 9.67677 10.0518 9.6295C10.761 8.92035 10.761 8.00183 10.0518 7.29267L9.12992 6.37078C9.02524 6.26609 8.91717 6.15803 8.81587 6.04997C8.61325 5.8406 8.40051 5.62448 8.18101 5.42186C7.85345 5.09768 7.46172 4.92546 7.04974 4.92546C6.63776 4.92546 6.23928 5.09768 5.90159 5.42186L5.89484 5.42862L4.74669 6.5869C4.31444 7.01914 4.06793 7.54594 4.0139 8.15716C3.93285 9.14322 4.22326 10.0617 4.44614 10.6628C4.9932 12.1385 5.81041 13.5062 7.02948 14.9718C8.50857 16.7379 10.2882 18.1326 12.3211 19.1152C13.0978 19.4833 14.1345 19.919 15.2928 19.9932C15.3637 19.9966 15.438 20 15.5055 20C16.2856 20 16.9407 19.7197 17.454 19.1625C17.4557 19.1591 17.4582 19.1566 17.4608 19.1541C17.4633 19.1516 17.4658 19.149 17.4675 19.1456C17.6301 18.9487 17.8159 18.769 18.0114 18.58L18.0585 18.5344C18.2037 18.396 18.3523 18.2508 18.4975 18.0988C18.8318 17.751 19.0074 17.3457 19.0074 16.9304C19.0074 16.5116 18.8284 16.1098 18.4873 15.7721L16.6334 13.9114ZM17.8424 17.4673C17.7342 17.5838 17.6238 17.6911 17.5074 17.8043L17.4304 17.8793C17.2109 18.0887 16.988 18.3082 16.7786 18.5547C16.4376 18.9194 16.0357 19.0916 15.5089 19.0916C15.4583 19.0916 15.4042 19.0916 15.3536 19.0882C14.3506 19.0241 13.4186 18.6323 12.7196 18.298C10.8082 17.3728 9.12992 16.0591 7.73525 14.3943C6.58373 13.0064 5.81379 11.7232 5.30388 10.3454C4.98982 9.50455 4.87501 8.84943 4.92566 8.23146C4.95943 7.83636 5.11139 7.5088 5.39168 7.22851L6.5432 6.07698C6.70867 5.92165 6.88427 5.83722 7.05649 5.83722C7.26924 5.83722 7.44146 5.96555 7.54952 6.07361L7.55965 6.08374C7.76565 6.27622 7.96151 6.47546 8.1675 6.68821C8.22025 6.74265 8.27385 6.7971 8.32788 6.85198C8.38108 6.90602 8.43469 6.96048 8.48831 7.01577L9.4102 7.93766C9.76816 8.29562 9.76816 8.62655 9.4102 8.98451C9.37744 9.01727 9.34505 9.05004 9.31279 9.08268C9.24863 9.14758 9.18494 9.21202 9.11979 9.27492C8.83613 9.56534 8.56598 9.83549 8.27218 10.0989C8.26979 10.1013 8.2674 10.1033 8.26516 10.1051C8.26107 10.1085 8.25748 10.1114 8.2553 10.1158C7.96488 10.4062 8.01891 10.6898 8.0797 10.8823L8.08983 10.9127C8.32959 11.4936 8.66728 12.0406 9.18057 12.6924L9.18395 12.6957C10.116 13.8439 11.0987 14.7388 12.1826 15.4243C12.3211 15.5121 12.4629 15.583 12.598 15.6505C12.7196 15.7113 12.8344 15.7687 12.9323 15.8295C12.9391 15.8329 12.9458 15.8371 12.9526 15.8413C12.9593 15.8455 12.9661 15.8498 12.9728 15.8532C13.0877 15.9106 13.1957 15.9376 13.3072 15.9376C13.5874 15.9376 13.763 15.762 13.8205 15.7046L14.9754 14.5497C15.0902 14.4348 15.2725 14.2964 15.4853 14.2964C15.6946 14.2964 15.8669 14.4281 15.9715 14.5429L17.839 16.4103C18.1868 16.7548 18.1868 17.1094 17.8424 17.4673Z" stroke="currentColor" stroke-width="0.6"></path><path d="M12.6351 7.80598C13.5199 7.95456 14.3236 8.3733 14.9652 9.01491C15.6068 9.65653 16.0222 10.4602 16.1742 11.345C16.2113 11.5679 16.4038 11.7232 16.6233 11.7232C16.6476 11.7232 16.6691 11.7205 16.6929 11.7175L16.701 11.7164C16.9509 11.6759 17.1163 11.4395 17.0758 11.1896C16.8934 10.1192 16.3869 9.14324 15.6136 8.36992C14.8403 7.59661 13.8643 7.09007 12.7939 6.90772C12.544 6.8672 12.311 7.03266 12.2671 7.27918C12.2232 7.52569 12.3853 7.76545 12.6351 7.80598Z" stroke="currentColor" stroke-width="0.6"></path>
    </g>
  </symbol>
  <symbol id="message" viewBox="0 0 24 24">
    <g>
      <path d="M8.25 10C8.25 9.58579 8.58579 9.25 9 9.25H15C15.4142 9.25 15.75 9.58579 15.75 10C15.75 10.4142 15.4142 10.75 15 10.75H9C8.58579 10.75 8.25 10.4142 8.25 10Z" fill="currentColor"></path><path d="M9 12.25C8.58579 12.25 8.25 12.5858 8.25 13C8.25 13.4142 8.58579 13.75 9 13.75H12C12.4142 13.75 12.75 13.4142 12.75 13C12.75 12.5858 12.4142 12.25 12 12.25H9Z" fill="currentColor"></path><path fill-rule="evenodd" clip-rule="evenodd" d="M6.25 16.9213C6.20067 16.8881 6.14788 16.8514 6.09213 16.8111C5.77226 16.5801 5.35099 16.2286 4.93056 15.7381C4.08286 14.7491 3.25 13.206 3.25 11C3.25 9.47314 4.14534 7.78123 5.63479 6.49488C7.14532 5.19033 9.3191 4.25 12 4.25C14.6809 4.25 16.8547 5.19033 18.3652 6.49488C19.8497 7.77697 20.7441 9.46194 20.75 10.9848C20.8033 12.4288 20.2336 14.3582 18.851 15.9324C17.4407 17.5382 15.2074 18.75 12 18.75H10.1771L7.33541 20.1708C7.10292 20.2871 6.82681 20.2746 6.6057 20.138C6.38459 20.0013 6.25 19.7599 6.25 19.5V16.9213ZM6.61521 7.63012C5.35466 8.71877 4.75 10.0269 4.75 11C4.75 12.794 5.41714 14.0009 6.06944 14.7619C6.39901 15.1464 6.72774 15.4199 6.97037 15.5951C7.09136 15.6825 7.18984 15.7447 7.25471 15.7833C7.2871 15.8025 7.31098 15.8159 7.32493 15.8235L7.3382 15.8306L7.33667 15.8298C7.59038 15.957 7.75 16.2162 7.75 16.5V18.2865L9.66459 17.3292C9.76873 17.2771 9.88357 17.25 10 17.25H12C14.7926 17.25 16.6093 16.2118 17.724 14.9426C18.8616 13.6472 19.2928 12.0844 19.2506 11.03C19.2502 11.02 19.25 11.01 19.25 11C19.25 10.0269 18.6453 8.71877 17.3848 7.63012C16.1453 6.55967 14.3191 5.75 12 5.75C9.6809 5.75 7.85468 6.55967 6.61521 7.63012Z"></path>
    </g>
  </symbol>
  <symbol id="clock" viewBox="0 0 24 24">
    <g>
      <path fill-rule="evenodd" d="M19 12.5C19 16.0899 16.0899 19 12.5 19C8.91015 19 6 16.0899 6 12.5C6 8.91015 8.91015 6 12.5 6C16.0899 6 19 8.91015 19 12.5ZM20 12.5C20 16.6421 16.6421 20 12.5 20C8.35786 20 5 16.6421 5 12.5C5 8.35786 8.35786 5 12.5 5C16.6421 5 20 8.35786 20 12.5ZM13 9H12C12 10.6667 12 12.3333 12 14H15V13H13V9Z" ></path>
    </g>
  </symbol>
  <symbol id="close" viewBox="0 0 24 24">
    <g>
      <path d="M12 13.4142L18.3639 19.7782L19.7782 18.364L13.4142 12L19.7781 5.63605L18.3639 4.22183L12 10.5858L5.63602 4.22186L4.22181 5.63607L10.5857 12L4.22179 18.364L5.636 19.7782L12 13.4142Z"/>
    </g>
  </symbol>
  <symbol id="vk" viewBox="0 0 24 24">
    <g>
      <path d="M18.4008 14.2478C19.8788 15.621 20.1839 16.2791 20.2316 16.3649C20.8418 17.3758 19.5641 17.4521 19.5641 17.4521L17.104 17.4902C17.104 17.4902 16.5701 17.5951 15.8836 17.1183C14.9587 16.4889 14.0719 14.839 13.414 15.0584C12.737 15.2777 12.756 16.7559 12.756 16.7559C12.756 16.7559 12.756 16.9657 12.6035 17.1278C12.4319 17.309 12.0981 17.2423 12.0981 17.2423H11.0016C11.0016 17.2423 8.57014 17.4902 6.44382 15.2682C4.10772 12.8459 2.04814 8.07763 2.04814 8.07763C2.04814 8.07763 1.93372 7.79153 2.05768 7.62941C2.2007 7.47683 2.60118 7.47683 2.60118 7.47683H5.23286C5.23286 7.47683 5.49031 7.47683 5.65241 7.62941C5.79543 7.73431 5.88125 7.95366 5.88125 7.95366C5.88125 7.95366 6.30079 9.01221 6.8729 9.98494C7.96943 11.8827 8.47479 12.2928 8.82759 12.0925C9.3997 11.7969 9.2376 9.41275 9.2376 9.41275C9.2376 9.41275 9.24714 8.54492 8.96108 8.16346C8.74178 7.86783 8.32223 7.77246 8.14106 7.75339C7.9885 7.73431 8.23642 7.391 8.55107 7.22888C9.02783 7 9.85738 7 10.849 7C11.6214 7 11.8407 7.05722 12.1363 7.12398C13.0516 7.34332 12.737 8.19207 12.737 10.2138C12.737 10.8718 12.6416 11.7683 13.0898 12.083C13.29 12.2165 13.7858 12.1021 15.0254 10.0135C15.5975 9.02175 16.0361 7.84875 16.0361 7.84875C16.0361 7.84875 16.1315 7.64849 16.2745 7.55312C16.4271 7.47683 16.6368 7.47683 16.6368 7.47683H19.402C19.402 7.47683 20.2411 7.38146 20.3746 7.75339C20.5176 8.14439 20.0599 9.06943 18.9253 10.5667C17.0754 13.0462 16.8657 12.8173 18.4008 14.2478Z"></path>
    </g>
  </symbol>
  <symbol id="facebook" viewBox="0 0 24 24">
  <g>
    <path d="M15.9 3V6.36H14.22C13.6404 6.36 13.38 7.0404 13.38 7.62V9.72H15.9V13.08H13.38V19.8H10.02V13.08H7.5V9.72H10.02V6.36C10.02 5.46887 10.374 4.61424 11.0041 3.98412C11.6342 3.354 12.4889 3 13.38 3H15.9Z"></path>
  </g>
  </symbol>
  <symbol id="instagram" viewBox="0 0 24 24">
    <g>
      <path d="M8.43 3.5H15.57C18.29 3.5 20.5 5.71 20.5 8.43V15.57C20.5 16.8775 19.9806 18.1315 19.056 19.056C18.1315 19.9806 16.8775 20.5 15.57 20.5H8.43C5.71 20.5 3.5 18.29 3.5 15.57V8.43C3.5 7.12248 4.01941 5.86852 4.94396 4.94396C5.86852 4.01941 7.12248 3.5 8.43 3.5ZM8.26 5.2C7.44844 5.2 6.67011 5.52239 6.09625 6.09625C5.52239 6.67011 5.2 7.44844 5.2 8.26V15.74C5.2 17.4315 6.5685 18.8 8.26 18.8H15.74C16.5516 18.8 17.3299 18.4776 17.9037 17.9037C18.4776 17.3299 18.8 16.5516 18.8 15.74V8.26C18.8 6.5685 17.4315 5.2 15.74 5.2H8.26ZM16.4625 6.475C16.7443 6.475 17.0145 6.58694 17.2138 6.7862C17.4131 6.98546 17.525 7.25571 17.525 7.5375C17.525 7.81929 17.4131 8.08954 17.2138 8.2888C17.0145 8.48806 16.7443 8.6 16.4625 8.6C16.1807 8.6 15.9105 8.48806 15.7112 8.2888C15.5119 8.08954 15.4 7.81929 15.4 7.5375C15.4 7.25571 15.5119 6.98546 15.7112 6.7862C15.9105 6.58694 16.1807 6.475 16.4625 6.475ZM12 7.75C13.1272 7.75 14.2082 8.19777 15.0052 8.9948C15.8022 9.79183 16.25 10.8728 16.25 12C16.25 13.1272 15.8022 14.2082 15.0052 15.0052C14.2082 15.8022 13.1272 16.25 12 16.25C10.8728 16.25 9.79183 15.8022 8.9948 15.0052C8.19777 14.2082 7.75 13.1272 7.75 12C7.75 10.8728 8.19777 9.79183 8.9948 8.9948C9.79183 8.19777 10.8728 7.75 12 7.75ZM12 9.45C11.3237 9.45 10.6751 9.71866 10.1969 10.1969C9.71866 10.6751 9.45 11.3237 9.45 12C9.45 12.6763 9.71866 13.3249 10.1969 13.8031C10.6751 14.2813 11.3237 14.55 12 14.55C12.6763 14.55 13.3249 14.2813 13.8031 13.8031C14.2813 13.3249 14.55 12.6763 14.55 12C14.55 11.3237 14.2813 10.6751 13.8031 10.1969C13.3249 9.71866 12.6763 9.45 12 9.45Z"></path>
    </g>
  </symbol>
  <symbol id="YT" viewBox="0 0 24 24">
    <g>
      <path fill-rule="evenodd" clip-rule="evenodd" d="M19.221 6.39153C20.0006 6.60235 20.6152 7.21976 20.8251 8.00282C21.2149 9.43341 21.1999 12.4151 21.1999 12.4151C21.1999 12.4151 21.1999 15.3816 20.8251 16.8122C20.6152 17.5953 20.0006 18.2127 19.221 18.4235C17.7968 18.8 12.1 18.8 12.1 18.8C12.1 18.8 6.41811 18.8 4.9789 18.4085C4.19934 18.1976 3.58468 17.5802 3.37479 16.7972C3 15.3816 3 12.4 3 12.4C3 12.4 3 9.43341 3.37479 8.00282C3.58468 7.21976 4.21433 6.58729 4.9789 6.37647C6.40312 6 12.1 6 12.1 6C12.1 6 17.7968 6 19.221 6.39153ZM15.0234 12.4L10.286 15.1407V9.6593L15.0234 12.4Z"></path>
    </g>
  </symbol>
  <symbol id="Ok" viewBox="0 0 24 24">
    <g>
      <path fill-rule="evenodd" clip-rule="evenodd" d="M7.80421 7.29282C7.79051 9.64762 9.71686 11.5967 12.0661 11.6047C14.4392 11.6129 16.3789 9.70815 16.391 7.35816C16.4029 4.95262 14.4948 3.00643 12.1177 3.00002C9.74533 2.99343 7.81773 4.91202 7.80421 7.29282ZM12.1006 5.19743C13.2666 5.1985 14.197 6.12931 14.2011 7.29852C14.205 8.46755 13.2771 9.40441 12.1115 9.40851C10.9423 9.41278 10.0038 8.48856 9.99511 7.3238C9.98603 6.1439 10.9248 5.19618 12.1006 5.19743Z"></path><path d="M7.74311 13.7164C8.75966 14.5121 9.947 14.8367 11.2638 14.9741C11.2281 15.0124 11.1972 15.0461 11.1692 15.0767C11.1243 15.1257 11.0866 15.1668 11.0473 15.2065C10.8597 15.3947 10.6721 15.583 10.4845 15.7713C9.70646 16.5521 8.92829 17.3331 8.14838 18.1125C7.94824 18.3124 7.80485 18.5353 7.79061 18.8272C7.76998 19.2586 8.03737 19.6878 8.45758 19.8917C8.85288 20.0838 9.25851 20.0233 9.59937 19.6869C10.3585 18.9379 11.1132 18.1846 11.8557 17.4195C12.0415 17.2283 12.1427 17.1867 12.3532 17.4069C12.8394 17.9161 13.3386 18.4128 13.8379 18.9095C14.0812 19.1516 14.3246 19.3937 14.5665 19.6373C14.7591 19.8315 14.976 19.97 15.2541 19.9892C15.693 20.0193 16.1406 19.7382 16.3405 19.3109C16.5234 18.9199 16.454 18.5031 16.1219 18.167C15.5022 17.5399 14.8794 16.9156 14.2567 16.2914C13.8998 15.9336 13.5428 15.5758 13.1865 15.2175C13.1358 15.1665 13.0944 15.1212 13.0315 15.0523C13.0101 15.0288 12.9862 15.0026 12.9586 14.9725C13.6789 14.8864 14.4067 14.7566 15.0712 14.4988C15.7739 14.226 16.4064 13.8352 16.9323 13.295C17.2751 12.9427 17.2786 12.4997 17.0004 12.0458C16.7568 11.6485 16.3336 11.4816 15.8798 11.5982C15.6464 11.6584 15.445 11.7763 15.2566 11.9209C13.3549 13.201 10.7524 13.165 8.85787 11.8623C8.765 11.7978 8.66804 11.7378 8.56628 11.6898C8.04075 11.4417 7.53514 11.5573 7.23395 11.9892C6.88188 12.494 6.92671 12.9838 7.37165 13.4114C7.46368 13.4998 7.56538 13.5786 7.66692 13.6572C7.69238 13.6769 7.71783 13.6966 7.74311 13.7164Z"></path>
    </g>
  </symbol>
  <symbol id="auth" viewBox="0 0 24 24">
    <g>
      <path d="M16.2 3.25C17.1665 3.25 17.95 4.0335 17.95 5V17C17.95 17.9665 17.1665 18.75 16.2 18.75H8.8C7.8335 18.75 7.05 17.9665 7.05 17V15H8.55V17C8.55 17.1381 8.66193 17.25 8.8 17.25H16.2C16.3381 17.25 16.45 17.1381 16.45 17V5C16.45 4.86193 16.3381 4.75 16.2 4.75H8.8C8.66193 4.75 8.55 4.86193 8.55 5V6.99998H7.05V5C7.05 4.0335 7.8335 3.25 8.8 3.25H16.2Z"></path><path fill="currentColor" d="M9.96967 9.03031C9.67678 8.73742 9.67677 8.26255 9.96967 7.96966C10.2626 7.67676 10.7374 7.67676 11.0303 7.96965L13.5303 10.4696C13.671 10.6103 13.75 10.801 13.75 10.9999C13.75 11.1989 13.671 11.3896 13.5303 11.5303L11.0303 14.0303C10.7374 14.3232 10.2626 14.3232 9.96967 14.0303C9.67678 13.7374 9.67677 13.2625 9.96967 12.9697L11.1894 11.7499H5C4.58579 11.7499 4.25 11.4142 4.25 10.9999C4.25 10.5857 4.58579 10.2499 5 10.2499H11.1893L9.96967 9.03031Z"></path>
    </g>
  </symbol>
  <symbol id="shopping-cart" viewBox="0 0 17 16">
    <path fill-rule="evenodd" clip-rule="evenodd" d="M12.0539 9.47368C12.6658 9.47368 13.2042 9.13921 13.4816 8.63342L16.1492 3.33895C16.4511 2.80053 16.0595 2.13158 15.4395 2.13158H4.43447L3.66763 0.5H1.31579C0.865241 0.5 0.5 0.865241 0.5 1.31579C0.5 1.76634 0.865242 2.13158 1.31579 2.13158H2.63158L5.56842 8.32342L4.36842 10.0921C3.77289 11.1853 4.35211 12.1316 5.59211 12.1316H13.75C14.2006 12.1316 14.5658 11.7663 14.5658 11.3158C14.5658 10.8652 14.2005 10.5 13.75 10.5H6L6.79211 9.47368H12.0539ZM5.20947 3.76316H14.0526L12.0539 7.84211H7.14289L5.20947 3.76316ZM8.75 14.5724C8.75 15.3608 8.11083 16 7.32237 16C6.53391 16 5.89474 15.3608 5.89474 14.5724C5.89474 13.7839 6.53391 13.1447 7.32237 13.1447C8.11083 13.1447 8.75 13.7839 8.75 14.5724ZM12.2171 16C13.0056 16 13.6447 15.3608 13.6447 14.5724C13.6447 13.7839 13.0056 13.1447 12.2171 13.1447C11.4287 13.1447 10.7895 13.7839 10.7895 14.5724C10.7895 15.3608 11.4287 16 12.2171 16Z"></path>
  </symbol>
  <symbol id="like" viewBox="0 0 24 24" >
    <path fill-rule="evenodd" clip-rule="evenodd" d="M6.53785 7.66601C6.07776 8.21811 5.8002 8.96099 5.8002 9.69232C5.8002 10.0297 5.9527 10.4875 6.32629 11.0805C6.69275 11.6623 7.22346 12.2988 7.86581 12.9779C8.6637 13.8213 9.56378 14.6615 10.4704 15.5077C10.9577 15.9627 11.447 16.4194 11.9233 16.8793C12.3995 16.4194 12.8888 15.9627 13.3762 15.5077C14.2828 14.6615 15.1828 13.8213 15.9807 12.9779C16.6231 12.2988 17.1538 11.6623 17.5203 11.0805C17.8938 10.4875 18.0463 10.0297 18.0463 9.69232C18.0463 8.96099 17.7688 8.21811 17.3087 7.66601C16.8521 7.11804 16.2558 6.80001 15.6156 6.80001C14.1212 6.80001 13.4036 7.49718 12.489 8.41185C12.3389 8.56188 12.1354 8.64617 11.9233 8.64617C11.7111 8.64617 11.5076 8.56188 11.3576 8.41185C10.4429 7.49718 9.72537 6.80001 8.23096 6.80001C7.59075 6.80001 6.99448 7.11804 6.53785 7.66601ZM5.30869 6.64171C6.00591 5.80506 7.02502 5.20001 8.23096 5.20001C10.006 5.20001 11.0837 5.94944 11.9233 6.72847C12.7629 5.94944 13.8405 5.20001 15.6156 5.20001C16.8215 5.20001 17.8406 5.80506 18.5378 6.64171C19.2316 7.47422 19.6463 8.5775 19.6463 9.69232C19.6463 10.4699 19.314 11.2349 18.874 11.9333C18.427 12.643 17.8154 13.3666 17.1431 14.0774C16.3229 14.9444 15.3425 15.8608 14.4003 16.7414C13.8269 17.2773 13.2677 17.7999 12.7673 18.2902C12.2985 18.7496 11.548 18.7496 11.0792 18.2902C10.5788 17.7999 10.0196 17.2773 9.44626 16.7414C8.50408 15.8608 7.52368 14.9444 6.70347 14.0774C6.03109 13.3666 5.41958 12.643 4.97251 11.9333C4.53255 11.2349 4.2002 10.4699 4.2002 9.69232C4.2002 8.5775 4.61494 7.47422 5.30869 6.64171Z"></path>
  </symbol>
  <symbol id="list" viewBox="0 0 438.891 438.891">
    <g>
      <path d="M347.968,57.503h-39.706V39.74c0-5.747-6.269-8.359-12.016-8.359h-30.824c-7.314-20.898-25.6-31.347-46.498-31.347
				c-20.668-0.777-39.467,11.896-46.498,31.347h-30.302c-5.747,0-11.494,2.612-11.494,8.359v17.763H90.923
				c-23.53,0.251-42.78,18.813-43.886,42.318v299.363c0,22.988,20.898,39.706,43.886,39.706h257.045
				c22.988,0,43.886-16.718,43.886-39.706V99.822C390.748,76.316,371.498,57.754,347.968,57.503z M151.527,52.279h28.735
				c5.016-0.612,9.045-4.428,9.927-9.404c3.094-13.474,14.915-23.146,28.735-23.51c13.692,0.415,25.335,10.117,28.212,23.51
				c0.937,5.148,5.232,9.013,10.449,9.404h29.78v41.796H151.527V52.279z M370.956,399.185c0,11.494-11.494,18.808-22.988,18.808
				H90.923c-11.494,0-22.988-7.314-22.988-18.808V99.822c1.066-11.964,10.978-21.201,22.988-21.42h39.706v26.645
				c0.552,5.854,5.622,10.233,11.494,9.927h154.122c5.98,0.327,11.209-3.992,12.016-9.927V78.401h39.706
				c12.009,0.22,21.922,9.456,22.988,21.42V399.185z"/>
      <path d="M179.217,233.569c-3.919-4.131-10.425-4.364-14.629-0.522l-33.437,31.869l-14.106-14.629
				c-3.919-4.131-10.425-4.363-14.629-0.522c-4.047,4.24-4.047,10.911,0,15.151l21.42,21.943c1.854,2.076,4.532,3.224,7.314,3.135
				c2.756-0.039,5.385-1.166,7.314-3.135l40.751-38.661c4.04-3.706,4.31-9.986,0.603-14.025
				C179.628,233.962,179.427,233.761,179.217,233.569z"/>
      <path d="M329.16,256.034H208.997c-5.771,0-10.449,4.678-10.449,10.449s4.678,10.449,10.449,10.449H329.16
				c5.771,0,10.449-4.678,10.449-10.449S334.931,256.034,329.16,256.034z"/>
      <path d="M179.217,149.977c-3.919-4.131-10.425-4.364-14.629-0.522l-33.437,31.869l-14.106-14.629
				c-3.919-4.131-10.425-4.364-14.629-0.522c-4.047,4.24-4.047,10.911,0,15.151l21.42,21.943c1.854,2.076,4.532,3.224,7.314,3.135
				c2.756-0.039,5.385-1.166,7.314-3.135l40.751-38.661c4.04-3.706,4.31-9.986,0.603-14.025
				C179.628,150.37,179.427,150.169,179.217,149.977z"/>
      <path d="M329.16,172.442H208.997c-5.771,0-10.449,4.678-10.449,10.449s4.678,10.449,10.449,10.449H329.16
				c5.771,0,10.449-4.678,10.449-10.449S334.931,172.442,329.16,172.442z"/>
      <path d="M179.217,317.16c-3.919-4.131-10.425-4.363-14.629-0.522l-33.437,31.869l-14.106-14.629
				c-3.919-4.131-10.425-4.363-14.629-0.522c-4.047,4.24-4.047,10.911,0,15.151l21.42,21.943c1.854,2.076,4.532,3.224,7.314,3.135
				c2.756-0.039,5.385-1.166,7.314-3.135l40.751-38.661c4.04-3.706,4.31-9.986,0.603-14.025
				C179.628,317.554,179.427,317.353,179.217,317.16z"/>
      <path d="M329.16,339.626H208.997c-5.771,0-10.449,4.678-10.449,10.449s4.678,10.449,10.449,10.449H329.16
				c5.771,0,10.449-4.678,10.449-10.449S334.931,339.626,329.16,339.626z"/>
    </g>
  </symbol>
  <symbol id="logout" viewBox="0 0 20 20" >
    <g>
      <path d="M6.6 5.8C6.6 5.68954 6.68954 5.6 6.8 5.6H14.2C14.3105 5.6 14.4 5.68954 14.4 5.8V7.8H16V5.8C16 4.80589 15.1941 4 14.2 4H6.8C5.80589 4 5 4.80589 5 5.8V17.8C5 18.7941 5.80589 19.6 6.8 19.6H14.2C15.1941 19.6 16 18.7941 16 17.8V15.8H14.4V17.8C14.4 17.9105 14.3105 18 14.2 18H6.8C6.68954 18 6.6 17.9105 6.6 17.8V5.8ZM13.0657 8.73431C13.3781 9.04673 13.3781 9.55326 13.0657 9.86568L11.9314 11H18C18.4419 11 18.8 11.3582 18.8 11.8C18.8 12.2418 18.4419 12.6 18 12.6H11.9314L13.0657 13.7343C13.3781 14.0467 13.3781 14.5533 13.0657 14.8657C12.7533 15.1781 12.2467 15.1781 11.9343 14.8657L9.43434 12.3657C9.12192 12.0533 9.12192 11.5467 9.43434 11.2343L11.9343 8.73431C12.2467 8.42189 12.7533 8.42189 13.0657 8.73431Z"></path>
    </g>
  </symbol>
  <symbol id="not-like" viewBox="0 0 512 512">
    <path style="fill:#FD3018;" d="M256,482.164c-3.526,0-7.052-1.238-9.88-3.713l-0.655-0.574
	c-21.813-19.085-42.302-36.544-62.115-53.429c-53.171-45.309-99.088-84.437-131.005-122.397C16.633,259.578,0,219.954,0,177.351
	c0-39.138,13.267-75.746,37.355-103.08C62.609,45.616,97.642,29.836,136,29.836c53.948,0,88.103,32.22,107.255,59.25
	c4.97,7.014,9.196,14.047,12.745,20.665c3.549-6.618,7.776-13.651,12.745-20.665c19.152-27.029,53.307-59.25,107.255-59.25
	c38.358,0,73.391,15.781,98.644,44.435C498.733,101.605,512,138.213,512,177.351c0,42.603-16.633,82.228-52.345,124.7
	c-31.917,37.96-77.834,77.088-131.002,122.395c-19.816,16.887-40.305,34.346-62.118,53.431l-0.655,0.574
	C263.052,480.927,259.526,482.164,256,482.164z M136,59.836c-29.621,0-56.66,12.171-76.138,34.271
	C40.605,115.957,30,145.521,30,177.351c0,77.007,68.745,135.588,172.804,224.261c17.083,14.557,34.662,29.537,53.196,45.648
	c18.535-16.112,36.113-31.091,53.193-45.646C413.255,312.939,482,254.358,482,177.351c0-31.83-10.605-61.394-29.863-83.245
	C432.66,72.007,405.621,59.836,376,59.836c-41.129,0-67.716,25.338-82.776,46.594c-13.509,19.065-20.558,38.282-22.962,45.66
	c-2.011,6.175-7.768,10.354-14.262,10.354s-12.251-4.179-14.262-10.354c-2.404-7.377-9.453-26.595-22.962-45.659
	C203.716,85.174,177.129,59.836,136,59.836z"/>
  </symbol>
  <symbol id="favorite" viewBox="0 0 512 512">
    <g>
      <path style="fill:#FD3018;" d="M256,481c-3.53,0-7.046-1.23-9.873-3.706c-21.826-19.087-42.583-36.782-62.109-53.423
	C73.817,329.96,0,267.909,0,177.514C0,93.988,59.037,31,136,31c60.659,0,99.595,42.378,120,80.537C276.405,73.378,315.341,31,376,31
	c76.963,0,136,62.988,136,146.514c0,90.396-73.817,152.446-184.018,246.357c-19.526,16.641-40.283,34.336-62.109,53.423
	C263.046,479.77,259.53,481,256,481z"/>
      <path style="fill:#E61E14;" d="M265.873,477.294c21.826-19.087,42.583-36.782,62.109-53.423C438.183,329.96,512,267.909,512,177.514
	C512,93.988,452.963,31,376,31c-60.659,0-99.595,42.378-120,80.537V481C259.53,481,263.046,479.77,265.873,477.294z"/>
    </g>
  </symbol>
  <symbol id="minus" viewBox="0 0 299 299">
    <rect y="128" width="298.667" height="42.667"/>
  </symbol>
  <symbol id="plus" viewBox="0 0 448 448">
    <path d="m408 184h-136c-4.417969 0-8-3.582031-8-8v-136c0-22.089844-17.910156-40-40-40s-40 17.910156-40 40v136c0 4.417969-3.582031 8-8 8h-136c-22.089844 0-40 17.910156-40 40s17.910156 40 40 40h136c4.417969 0 8 3.582031 8 8v136c0 22.089844 17.910156 40 40 40s40-17.910156 40-40v-136c0-4.417969 3.582031-8 8-8h136c22.089844 0 40-17.910156 40-40s-17.910156-40-40-40zm0 0"/>
  </symbol>
</svg>
